<svg xmlns="http://www.w3.org/2000/svg" width="21" height="23" viewBox="0 0 21 23">
  <metadata><?xpacket begin="﻿" id="W5M0MpCehiHzreSzNTczkc9d"?>
<x:xmpmeta xmlns:x="adobe:ns:meta/" x:xmptk="Adobe XMP Core 5.6-c138 79.159824, 2016/09/14-01:09:01        ">
   <rdf:RDF xmlns:rdf="http://www.w3.org/1999/02/22-rdf-syntax-ns#">
      <rdf:Description rdf:about=""/>
   </rdf:RDF>
</x:xmpmeta>
                                                                                                    
                                                                                                    
                                                                                                    
                                                                                                    
                                                                                                    
                                                                                                    
                                                                                                    
                                                                                                    
                                                                                                    
                                                                                                    
                                                                                                    
                                                                                                    
                                                                                                    
                                                                                                    
                                                                                                    
                                                                                                    
                                                                                                    
                                                                                                    
                                                                                                    
                                                                                                    
                           
<?xpacket end="w"?></metadata>
<defs>
    <style>
      .cls-1 {
        fill: #ae2340;
        fill-rule: evenodd;
      }
    </style>
  </defs>
  <path class="cls-1" d="M509.78,4964a4.75,4.75,0,0,1-3.383-8.11l10.734-10.65a3.264,3.264,0,0,1,4.594,0,3.212,3.212,0,0,1,0,4.56l-7.9,7.84a0.81,0.81,0,0,1-1.136,0,0.8,0.8,0,0,1,0-1.13l7.9-7.84a1.634,1.634,0,0,0-2.322-2.3l-10.734,10.65a3.166,3.166,0,0,0,4.494,4.46l10.986-10.9a4.66,4.66,0,0,0,0-6.62,4.752,4.752,0,0,0-6.666,0l-8.147,8.09a0.81,0.81,0,0,1-1.136,0,0.8,0.8,0,0,1,0-1.13l8.147-8.09a6.372,6.372,0,0,1,8.938,0,6.239,6.239,0,0,1,0,8.87l-10.986,10.91a4.758,4.758,0,0,1-3.383,1.39h0Zm0,0" transform="translate(-505 -4941)"/>
</svg>
